<svg xmlns="http://www.w3.org/2000/svg" width="104.028" height="101.59" id="facebook-square">
  <path fill="#475a96" d="M0 0h104.028v101.59H0Z"></path>
  <path fill="#fff" d="M76.338 22.868H28.096a2.992 2.992 0 0 0-2.993 2.993v48.242a2.993 2.993 0 0 0 2.993 2.993h25.972v-21h-7.067v-8.181h7.067V41.88c0-7 4.278-10.818 10.526-10.818a57.989 57.989 0 0 1 6.315.322v7.32h-4.333c-3.4 0-4.056 1.615-4.056 3.984v5.227h8.1l-1.055 8.184h-7.049v21h13.819a2.993 2.993 0 0 0 2.993-2.993V25.861a2.993 2.993 0 0 0-2.99-2.993Z"></path>
</svg>
